<svg xmlns="http://www.w3.org/2000/svg" xmlns:xlink="http://www.w3.org/1999/xlink" width="500" zoomAndPan="magnify" viewBox="0 0 375 374.999991" height="500" preserveAspectRatio="xMidYMid meet" version="1.0"><defs><g/><clipPath id="54a38b9d7d"><path d="M 27 118 L 347.976562 118 L 347.976562 320.257812 L 27 320.257812 Z M 27 118 " clip-rule="nonzero"/></clipPath><clipPath id="60a5cb02ab"><path d="M 30 18.757812 L 79 18.757812 L 79 131 L 30 131 Z M 30 18.757812 " clip-rule="nonzero"/></clipPath><clipPath id="2b7df43c3a"><path d="M 296 18.757812 L 345 18.757812 L 345 131 L 296 131 Z M 296 18.757812 " clip-rule="nonzero"/></clipPath></defs><g clip-path="url(#54a38b9d7d)"><path fill="#414858" d="M 276.265625 159.796875 L 260.101562 167.007812 C 249.683594 172.390625 239.226562 177.707031 229.257812 183.765625 C 209.054688 195.523438 189.785156 208.53125 171.121094 222.210938 C 152.265625 235.703125 133.828125 249.703125 115.582031 263.738281 C 106.476562 270.945312 97.113281 277.257812 87.78125 283.828125 L 86.277344 284.722656 C 88.839844 286.804688 91.46875 288.792969 94.164062 290.746094 C 103.269531 284.273438 112.410156 277.738281 121.132812 271.074219 C 139.570312 257.234375 158.039062 243.457031 176.859375 230.285156 C 195.714844 217.183594 215.113281 204.976562 235.125 194.082031 C 255.164062 183.347656 275.976562 174.089844 297.621094 167.808594 C 314.132812 163.128906 330.96875 159.832031 347.867188 158.453125 L 347.867188 139.324219 C 328.980469 142.207031 310.542969 146.886719 292.875 153.324219 C 287.292969 155.632812 281.585938 157.300781 276.265625 159.796875 Z M 289.507812 132.5625 C 283.992188 134.808594 278.347656 136.535156 272.960938 139.003906 L 256.832031 146.179688 C 246.378906 151.5625 235.957031 156.945312 225.953125 162.96875 C 212.804688 170.660156 199.949219 178.894531 187.476562 187.480469 C 175 178.863281 162.144531 170.660156 148.996094 162.96875 C 139.023438 156.945312 128.570312 151.5625 118.148438 146.179688 L 101.988281 139.003906 C 96.632812 136.535156 90.957031 134.808594 85.507812 132.5625 C 66.746094 125.769531 47.15625 120.867188 27.148438 118.082031 L 27.148438 137.433594 C 45.167969 138.585938 63.15625 141.984375 80.726562 147.015625 C 102.277344 153.292969 123.152344 162.554688 143.128906 173.289062 C 155.023438 179.757812 166.664062 186.679688 178.113281 193.984375 C 175.609375 195.746094 173.171875 197.476562 170.738281 199.304688 C 162.558594 193.890625 154.191406 188.730469 145.691406 183.765625 C 135.722656 177.707031 125.265625 172.390625 114.8125 167.007812 L 98.683594 159.796875 C 93.328125 157.300781 87.65625 155.632812 82.140625 153.390625 C 64.4375 146.949219 46 142.273438 27.148438 139.386719 L 27.148438 158.515625 C 44.078125 159.863281 60.910156 163.164062 77.425781 167.871094 C 99.003906 174.152344 119.816406 183.410156 139.855469 194.144531 C 147.007812 198.023438 154.09375 202.089844 161.050781 206.320312 C 158.648438 208.082031 156.273438 209.8125 153.871094 211.574219 C 150.085938 209.171875 146.238281 206.929688 142.421875 204.65625 C 132.417969 198.597656 121.996094 193.28125 111.542969 187.898438 L 95.414062 180.65625 C 90.027344 178.1875 84.382812 176.492188 78.867188 174.28125 C 62.195312 168.226562 44.847656 163.675781 27.148438 160.792969 C 27.148438 167.199219 27.53125 173.542969 28.300781 179.757812 C 43.726562 181.296875 59.050781 184.4375 74.121094 188.761719 C 95.671875 195.042969 116.546875 204.238281 136.617188 215.035156 C 139.023438 216.347656 141.460938 217.726562 143.867188 219.039062 C 141.523438 220.769531 139.246094 222.5 136.972656 224.230469 C 127.640625 218.6875 117.957031 213.753906 108.207031 208.753906 L 92.113281 201.515625 C 86.757812 199.046875 81.082031 197.347656 75.566406 195.136719 C 60.398438 189.628906 44.6875 185.367188 28.621094 182.449219 C 29.488281 188.921875 30.769531 195.300781 32.40625 201.484375 C 45.328125 203.148438 58.1875 205.9375 70.789062 209.558594 C 89.929688 215.132812 108.464844 222.949219 126.324219 232.242188 C 124.113281 233.941406 121.902344 235.636719 119.71875 237.273438 C 114.847656 234.644531 109.84375 232.082031 104.90625 229.582031 L 88.808594 222.308594 C 83.421875 219.875 77.777344 218.144531 72.261719 215.933594 C 59.597656 211.382812 46.578125 207.667969 33.304688 204.816406 C 35.164062 211.414062 37.441406 217.824219 40.132812 224.007812 C 49.335938 225.707031 58.441406 227.851562 67.484375 230.414062 C 81.433594 234.421875 95.125 239.769531 108.464844 245.953125 C 106.378906 247.558594 104.230469 249.125 102.082031 250.695312 C 101.890625 250.601562 101.761719 250.503906 101.570312 250.410156 L 85.507812 243.039062 C 80.152344 240.605469 74.476562 238.84375 69.023438 236.664062 C 60.238281 233.460938 51.292969 230.671875 42.183594 228.398438 C 45.425781 235.285156 49.144531 241.917969 53.28125 248.230469 C 56.96875 249.125 60.625 250.121094 64.246094 251.144531 C 72.617188 253.613281 80.953125 256.464844 89.128906 259.765625 C 87.589844 260.855469 85.988281 261.941406 84.414062 263.03125 L 82.652344 264.089844 L 82.203125 263.898438 C 76.816406 261.429688 71.171875 259.699219 65.65625 257.519531 C 63.027344 256.558594 60.398438 255.632812 57.769531 254.765625 C 63.925781 263.128906 70.820312 270.945312 78.417969 277.996094 L 78.675781 277.835938 L 89.578125 270.816406 C 90.636719 270.082031 91.695312 269.375 92.722656 268.605469 C 94.871094 267.039062 97.019531 265.5 99.164062 263.992188 C 103.207031 261.078125 107.246094 258.164062 111.191406 255.246094 C 113.402344 253.613281 115.582031 251.914062 117.765625 250.28125 L 117.796875 250.28125 C 121.453125 247.558594 125.042969 244.832031 128.699219 242.109375 C 131.007812 240.378906 133.25 238.714844 135.527344 237.015625 C 138.960938 234.421875 142.390625 231.890625 145.789062 229.421875 C 148.195312 227.660156 150.535156 225.960938 152.90625 224.230469 C 156.179688 221.828125 159.480469 219.425781 162.753906 217.117188 C 165.222656 215.292969 167.625 213.5625 170.128906 211.832031 C 171.25 211.0625 172.371094 210.292969 173.460938 209.460938 C 175.515625 208.050781 177.566406 206.609375 179.683594 205.230469 C 182.246094 203.46875 184.84375 201.738281 187.410156 200.007812 C 190.519531 197.957031 193.632812 195.941406 196.773438 193.953125 C 208.222656 186.648438 219.859375 179.726562 231.726562 173.253906 C 251.734375 162.523438 272.578125 153.261719 294.15625 146.980469 C 311.730469 141.984375 329.683594 138.585938 347.738281 137.402344 L 347.738281 118.082031 C 327.792969 120.867188 308.234375 125.738281 289.507812 132.5625 Z M 279.535156 180.59375 L 263.40625 187.832031 C 252.953125 193.214844 242.5625 198.535156 232.527344 204.589844 C 212.390625 216.347656 193.054688 229.324219 174.390625 243.039062 C 155.539062 256.527344 137.164062 270.53125 118.886719 284.5625 C 113.722656 288.601562 108.527344 292.382812 103.238281 296.097656 C 103.078125 296.226562 102.886719 296.320312 102.726562 296.449219 C 105.578125 298.246094 108.496094 299.941406 111.445312 301.542969 C 111.734375 301.320312 112.054688 301.128906 112.34375 300.902344 C 116.449219 297.890625 120.457031 294.945312 124.464844 291.902344 C 142.839844 277.996094 161.308594 264.28125 180.097656 251.113281 C 198.953125 238.007812 218.355469 225.800781 238.363281 214.90625 C 258.4375 204.109375 279.246094 194.914062 300.859375 188.632812 C 315.898438 184.339844 331.257812 181.203125 346.679688 179.632812 C 347.449219 173.414062 347.835938 167.070312 347.835938 160.664062 C 330.132812 163.578125 312.785156 168.097656 296.113281 174.152344 C 290.566406 176.425781 284.890625 178.125 279.535156 180.59375 Z M 282.804688 201.417969 L 266.742188 208.660156 C 256.253906 214.011719 245.835938 219.359375 235.863281 225.417969 C 215.660156 237.144531 196.324219 250.152344 177.695312 263.867188 C 158.808594 277.355469 140.433594 291.324219 122.15625 305.359375 C 121.867188 305.550781 121.644531 305.773438 121.386719 305.964844 C 121.257812 306.0625 121.132812 306.160156 121.003906 306.253906 C 124.242188 307.730469 127.511719 309.105469 130.878906 310.355469 C 148.226562 297.25 165.703125 284.339844 183.464844 271.941406 C 202.289062 258.769531 221.71875 246.660156 241.664062 235.734375 C 261.738281 224.9375 282.582031 215.675781 304.160156 209.429688 C 316.828125 205.808594 329.683594 203.019531 342.574219 201.355469 C 344.210938 195.140625 345.492188 188.761719 346.359375 182.289062 C 330.292969 185.238281 314.582031 189.5 299.382812 195.011719 C 293.867188 197.253906 288.160156 198.953125 282.804688 201.417969 Z M 286.140625 222.210938 L 270.011719 229.484375 C 259.558594 234.835938 249.136719 240.1875 239.132812 246.242188 C 218.964844 257.9375 199.628906 270.976562 180.964844 284.691406 C 167.59375 294.238281 154.480469 304.011719 141.429688 313.945312 C 145.277344 315.128906 149.1875 316.15625 153.164062 316.988281 C 164.226562 308.785156 175.386719 300.679688 186.671875 292.734375 C 205.558594 279.628906 224.925781 267.484375 244.9375 256.59375 C 264.945312 245.792969 285.789062 236.535156 307.367188 230.285156 C 316.410156 227.691406 325.515625 225.546875 334.71875 223.878906 C 337.414062 217.695312 339.65625 211.285156 341.550781 204.6875 C 328.273438 207.539062 315.257812 211.253906 302.589844 215.804688 C 297.140625 218.046875 291.496094 219.808594 286.140625 222.210938 Z M 289.410156 243.039062 L 273.28125 250.28125 C 262.859375 255.664062 252.40625 261.015625 242.433594 267.070312 C 222.234375 278.765625 202.960938 291.804688 184.234375 305.519531 C 177.984375 310.003906 171.730469 314.554688 165.542969 319.167969 C 170.320312 319.808594 175.226562 320.257812 180.132812 320.480469 C 183.402344 318.140625 186.671875 315.835938 189.945312 313.527344 C 208.832031 300.421875 228.199219 288.28125 248.238281 277.355469 C 268.28125 266.558594 289.058594 257.328125 310.636719 251.082031 C 314.261719 250.054688 317.917969 249.0625 321.574219 248.199219 C 325.742188 241.855469 329.429688 235.222656 332.699219 228.332031 C 323.59375 230.640625 314.679688 233.425781 305.925781 236.597656 C 300.472656 238.839844 294.765625 240.636719 289.410156 243.039062 Z M 292.714844 263.898438 L 276.585938 271.105469 C 266.132812 276.519531 255.679688 281.839844 245.707031 287.894531 C 228.453125 297.957031 211.78125 308.945312 195.621094 320.511719 C 203.410156 320.128906 211.074219 319.167969 218.515625 317.691406 C 229.320312 310.835938 240.320312 304.332031 251.542969 298.246094 C 266.226562 290.332031 281.363281 283.28125 296.882812 277.578125 C 304.320312 270.65625 311.085938 263.03125 317.082031 254.796875 C 314.453125 255.632812 311.824219 256.59375 309.257812 257.519531 C 303.746094 259.667969 298.035156 261.429688 292.714844 263.898438 Z M 277.097656 293.34375 C 267.992188 297.957031 258.980469 302.699219 250.226562 307.921875 C 259.6875 303.949219 268.695312 299.011719 277.097656 293.34375 Z M 277.097656 293.34375 " fill-opacity="1" fill-rule="nonzero"/></g><g clip-path="url(#60a5cb02ab)"><path fill="#414858" d="M 60.976562 90.945312 C 58.667969 91.839844 56.902344 93.796875 56.261719 96.230469 L 55.78125 99.113281 L 55.78125 87.484375 L 70.660156 81.8125 C 72.871094 80.980469 74.605469 79.152344 75.339844 76.878906 L 77.9375 64.316406 L 60.816406 71.015625 C 58.507812 71.910156 56.742188 73.898438 56.101562 76.300781 L 55.8125 78.03125 L 55.8125 67.457031 L 70.5 61.882812 C 72.742188 61.019531 74.445312 59.222656 75.179688 56.949219 L 77.777344 44.390625 L 60.65625 51.117188 C 58.3125 52.015625 56.582031 53.96875 55.941406 56.402344 L 55.84375 57.078125 L 55.84375 47.847656 C 58.21875 45.191406 62.386719 40.414062 63.667969 38.332031 C 65.464844 35.351562 54.179688 18.882812 54.179688 18.882812 C 54.179688 18.882812 42.921875 35.351562 44.71875 38.332031 C 45.96875 40.414062 50.136719 45.191406 52.511719 47.847656 L 52.511719 59.253906 L 52.03125 56.4375 C 51.386719 54.03125 49.625 52.046875 47.316406 51.148438 L 30.191406 44.421875 L 32.789062 56.980469 C 33.527344 59.253906 35.226562 61.082031 37.472656 61.914062 L 52.511719 67.648438 L 52.511719 78.0625 L 52.222656 76.332031 C 51.582031 73.929688 49.816406 71.945312 47.507812 71.046875 L 30.386719 64.351562 L 32.984375 76.910156 C 33.71875 79.183594 35.417969 81.011719 37.664062 81.84375 L 52.511719 87.515625 L 52.511719 96.871094 L 52.414062 96.261719 C 51.773438 93.859375 50.007812 91.90625 47.699219 90.976562 L 30.578125 84.246094 L 33.175781 96.808594 C 33.914062 99.082031 35.613281 100.90625 37.855469 101.742188 L 52.542969 107.316406 L 52.542969 130.226562 L 55.878906 130.226562 L 55.878906 107.445312 L 70.917969 101.710938 C 73.160156 100.84375 74.859375 99.050781 75.597656 96.773438 L 78.195312 84.214844 Z M 65.5625 79.632812 C 66.78125 79.121094 68 78.640625 69.214844 78.191406 C 70.308594 77.808594 71.203125 76.941406 71.652344 75.851562 L 71.652344 75.820312 C 71.910156 74.796875 72.167969 73.769531 72.457031 72.746094 C 72.617188 72.230469 72.777344 71.6875 72.9375 71.175781 C 73.097656 70.660156 73.257812 70.117188 73.417969 69.605469 C 73.386719 70.148438 73.320312 70.695312 73.257812 71.238281 C 73.191406 71.785156 73.160156 72.328125 73.066406 72.839844 C 72.902344 73.898438 72.742188 74.988281 72.582031 76.042969 L 72.550781 76.109375 C 72.101562 77.488281 70.980469 78.671875 69.601562 79.183594 C 68.382812 79.664062 67.132812 80.113281 65.914062 80.5625 C 63.445312 81.425781 60.910156 82.226562 58.347656 82.902344 C 60.71875 81.683594 63.125 80.625 65.5625 79.632812 Z M 65.367188 59.703125 C 66.585938 59.191406 67.804688 58.710938 69.023438 58.261719 C 70.113281 57.878906 71.011719 57.011719 71.460938 55.890625 C 71.71875 54.867188 71.972656 53.839844 72.261719 52.816406 C 72.390625 52.300781 72.550781 51.789062 72.710938 51.246094 C 72.871094 50.734375 73.03125 50.1875 73.191406 49.675781 C 73.160156 50.21875 73.097656 50.765625 73.03125 51.308594 C 72.96875 51.855469 72.902344 52.398438 72.839844 52.910156 C 72.679688 54 72.519531 55.058594 72.359375 56.117188 L 72.359375 56.148438 C 71.910156 57.523438 70.789062 58.710938 69.410156 59.222656 C 68.160156 59.703125 66.941406 60.152344 65.691406 60.601562 C 63.21875 61.5 60.71875 62.265625 58.121094 62.941406 C 60.527344 61.753906 62.933594 60.699219 65.367188 59.703125 Z M 42.152344 60.664062 C 40.902344 60.214844 39.683594 59.769531 38.464844 59.289062 C 37.085938 58.773438 35.964844 57.621094 35.515625 56.210938 L 35.515625 56.179688 C 35.355469 55.121094 35.164062 54.03125 35.035156 52.976562 C 34.96875 52.429688 34.90625 51.886719 34.84375 51.375 C 34.777344 50.828125 34.714844 50.285156 34.683594 49.738281 C 34.875 50.253906 35.035156 50.765625 35.164062 51.308594 C 35.324219 51.820312 35.484375 52.335938 35.644531 52.878906 C 35.933594 53.90625 36.1875 54.960938 36.476562 55.988281 C 36.476562 55.988281 36.445312 55.957031 36.445312 55.957031 L 36.476562 56.019531 C 36.925781 57.109375 37.824219 57.941406 38.882812 58.328125 C 40.132812 58.773438 41.351562 59.253906 42.539062 59.769531 C 44.976562 60.761719 47.378906 61.851562 49.722656 63.066406 C 47.125 62.332031 44.621094 61.53125 42.152344 60.664062 Z M 42.3125 80.59375 C 41.0625 80.144531 39.84375 79.695312 38.59375 79.214844 C 37.214844 78.703125 36.09375 77.550781 35.644531 76.140625 L 35.644531 76.078125 C 35.453125 75.019531 35.292969 73.929688 35.164062 72.871094 C 35.097656 72.328125 35.035156 71.785156 34.96875 71.269531 C 34.90625 70.726562 34.84375 70.179688 34.808594 69.636719 C 35.003906 70.148438 35.132812 70.660156 35.292969 71.207031 C 35.453125 71.71875 35.613281 72.230469 35.742188 72.777344 C 36.027344 73.800781 36.285156 74.828125 36.542969 75.851562 C 36.957031 76.972656 37.886719 77.808594 38.980469 78.222656 C 40.199219 78.703125 41.414062 79.152344 42.632812 79.664062 C 45.070312 80.660156 47.476562 81.746094 49.816406 82.964844 C 47.316406 82.261719 44.816406 81.460938 42.3125 80.59375 Z M 42.507812 100.523438 C 41.253906 100.074219 40.035156 99.625 38.820312 99.144531 C 37.441406 98.632812 36.316406 97.480469 35.867188 96.070312 L 35.867188 96.039062 C 35.707031 94.980469 35.515625 93.890625 35.386719 92.832031 C 35.324219 92.289062 35.257812 91.777344 35.195312 91.230469 C 35.132812 90.6875 35.066406 90.140625 35.035156 89.628906 C 35.226562 90.140625 35.386719 90.65625 35.515625 91.167969 C 35.675781 91.679688 35.835938 92.191406 35.996094 92.738281 C 36.285156 93.761719 36.542969 94.789062 36.796875 95.84375 C 37.246094 96.933594 38.144531 97.769531 39.234375 98.183594 C 40.484375 98.632812 41.703125 99.113281 42.890625 99.625 C 45.328125 100.621094 47.734375 101.710938 50.074219 102.894531 C 47.507812 102.191406 44.976562 101.386719 42.507812 100.523438 Z M 50.042969 40.542969 C 49.367188 39.902344 48.695312 38.972656 48.375 38.011719 C 48.019531 37.019531 47.988281 35.929688 48.148438 34.90625 C 48.246094 34.390625 48.40625 33.878906 48.664062 33.429688 C 48.886719 32.980469 49.113281 32.566406 49.335938 32.117188 C 49.816406 31.285156 50.265625 30.417969 50.777344 29.617188 C 51.804688 27.984375 52.894531 26.382812 54.113281 24.90625 C 53.28125 26.636719 52.414062 28.367188 51.546875 30.066406 L 50.265625 32.628906 L 49.65625 33.910156 C 49.464844 34.296875 49.335938 34.710938 49.273438 35.160156 C 49.078125 35.996094 49.144531 36.890625 49.398438 37.722656 C 49.65625 38.589844 50.105469 39.261719 50.746094 40.03125 C 51.871094 41.441406 52.925781 42.882812 53.953125 44.390625 C 54.019531 44.484375 54.082031 44.582031 54.144531 44.675781 C 54.050781 44.582031 53.953125 44.484375 53.855469 44.390625 C 52.542969 43.140625 51.261719 41.859375 50.042969 40.542969 Z M 73.449219 91.167969 C 73.386719 91.710938 73.351562 92.257812 73.257812 92.769531 C 73.097656 93.859375 72.9375 94.917969 72.777344 95.972656 L 72.777344 96.039062 C 72.328125 97.414062 71.203125 98.601562 69.824219 99.082031 C 68.574219 99.5625 67.355469 100.011719 66.105469 100.460938 C 63.636719 101.324219 61.136719 102.125 58.539062 102.765625 C 60.878906 101.546875 63.285156 100.492188 65.722656 99.5 C 66.941406 98.984375 68.160156 98.503906 69.378906 98.054688 C 70.46875 97.671875 71.363281 96.808594 71.8125 95.683594 C 72.070312 94.660156 72.328125 93.636719 72.617188 92.609375 C 72.742188 92.097656 72.902344 91.585938 73.066406 91.039062 C 73.226562 90.527344 73.386719 90.015625 73.546875 89.5 C 73.578125 90.109375 73.480469 90.65625 73.449219 91.167969 Z M 73.449219 91.167969 " fill-opacity="1" fill-rule="nonzero"/></g><path fill="#414858" d="M 113.949219 112.601562 C 111.640625 113.5 109.875 115.453125 109.234375 117.890625 L 108.753906 120.773438 L 108.753906 109.140625 L 123.632812 103.472656 C 125.84375 102.636719 127.574219 100.8125 128.3125 98.535156 L 130.910156 85.976562 L 113.789062 92.671875 C 111.480469 93.570312 109.714844 95.558594 109.074219 97.960938 L 108.785156 99.691406 L 108.785156 89.117188 L 123.472656 83.542969 C 125.714844 82.675781 127.414062 80.882812 128.152344 78.609375 L 130.75 66.046875 L 113.628906 72.777344 C 111.285156 73.671875 109.554688 75.628906 108.914062 78.0625 L 108.816406 78.734375 L 108.816406 69.507812 C 111.191406 66.847656 115.359375 62.074219 116.640625 59.992188 C 118.4375 57.011719 107.148438 40.542969 107.148438 40.542969 C 107.148438 40.542969 95.894531 57.011719 97.691406 59.992188 C 98.941406 62.074219 103.109375 66.847656 105.484375 69.507812 L 105.484375 80.914062 L 105 78.09375 C 104.359375 75.691406 102.597656 73.707031 100.289062 72.808594 L 83.164062 66.078125 L 85.761719 78.640625 C 86.5 80.914062 88.199219 82.742188 90.445312 83.574219 L 105.484375 89.308594 L 105.484375 99.722656 L 105.195312 97.992188 C 104.554688 95.589844 102.789062 93.601562 100.480469 92.707031 L 83.359375 86.007812 L 85.953125 98.570312 C 86.691406 100.84375 88.390625 102.671875 90.636719 103.503906 L 105.484375 109.175781 L 105.484375 118.53125 L 105.386719 117.921875 C 104.746094 115.519531 102.980469 113.5625 100.671875 112.632812 L 83.550781 105.90625 L 86.148438 118.464844 C 86.886719 120.742188 88.585938 122.566406 90.828125 123.398438 L 105.515625 128.976562 L 105.515625 151.882812 L 108.851562 151.882812 L 108.851562 129.101562 L 123.886719 123.367188 C 126.132812 122.503906 127.832031 120.707031 128.570312 118.433594 L 131.167969 105.875 Z M 118.5 101.324219 C 119.71875 100.8125 120.9375 100.332031 122.15625 99.882812 C 123.246094 99.5 124.144531 98.632812 124.59375 97.542969 L 124.59375 97.511719 C 124.851562 96.488281 125.105469 95.460938 125.394531 94.4375 C 125.554688 93.921875 125.714844 93.378906 125.875 92.867188 C 126.035156 92.351562 126.199219 91.808594 126.359375 91.296875 C 126.324219 91.839844 126.261719 92.386719 126.199219 92.929688 C 126.132812 93.472656 126.101562 94.019531 126.003906 94.53125 C 125.84375 95.589844 125.683594 96.679688 125.523438 97.734375 L 125.492188 97.800781 C 125.042969 99.179688 123.921875 100.363281 122.542969 100.875 C 121.324219 101.355469 120.074219 101.804688 118.855469 102.253906 C 116.386719 103.117188 113.851562 103.917969 111.285156 104.59375 C 113.660156 103.375 116.066406 102.285156 118.5 101.324219 Z M 118.308594 81.394531 C 119.527344 80.882812 120.746094 80.402344 121.964844 79.953125 C 123.054688 79.570312 123.953125 78.703125 124.402344 77.582031 C 124.65625 76.558594 124.914062 75.53125 125.203125 74.507812 C 125.332031 73.992188 125.492188 73.480469 125.652344 72.9375 C 125.8125 72.425781 125.972656 71.878906 126.132812 71.367188 C 126.101562 71.910156 126.035156 72.457031 125.972656 73 C 125.910156 73.546875 125.84375 74.089844 125.78125 74.601562 C 125.621094 75.691406 125.460938 76.75 125.300781 77.808594 L 125.300781 77.839844 C 124.851562 79.214844 123.726562 80.402344 122.347656 80.914062 C 121.097656 81.394531 119.878906 81.84375 118.628906 82.292969 C 116.160156 83.191406 113.660156 83.957031 111.0625 84.632812 C 113.46875 83.445312 115.871094 82.386719 118.308594 81.394531 Z M 95.09375 82.324219 C 93.84375 81.875 92.625 81.425781 91.40625 80.945312 C 90.027344 80.433594 88.90625 79.28125 88.457031 77.871094 L 88.457031 77.839844 C 88.296875 76.78125 88.101562 75.691406 87.976562 74.636719 C 87.910156 74.089844 87.847656 73.546875 87.78125 73.03125 C 87.71875 72.488281 87.65625 71.945312 87.621094 71.398438 C 87.816406 71.910156 87.976562 72.425781 88.101562 72.96875 C 88.265625 73.480469 88.425781 73.992188 88.585938 74.539062 C 88.871094 75.5625 89.128906 76.621094 89.417969 77.648438 C 89.417969 77.648438 89.386719 77.613281 89.386719 77.613281 L 89.417969 77.679688 C 89.867188 78.769531 90.765625 79.601562 91.824219 79.984375 C 93.074219 80.433594 94.292969 80.914062 95.476562 81.425781 C 97.914062 82.421875 100.320312 83.511719 102.660156 84.726562 C 100.097656 84.023438 97.5625 83.222656 95.09375 82.324219 Z M 95.285156 102.253906 C 94.035156 101.804688 92.816406 101.355469 91.566406 100.875 C 90.1875 100.363281 89.066406 99.210938 88.617188 97.800781 L 88.617188 97.734375 C 88.425781 96.679688 88.265625 95.589844 88.136719 94.53125 C 88.070312 93.988281 88.007812 93.441406 87.941406 92.929688 C 87.878906 92.386719 87.816406 91.839844 87.78125 91.296875 C 87.976562 91.808594 88.101562 92.320312 88.265625 92.867188 C 88.425781 93.378906 88.585938 93.890625 88.710938 94.4375 C 89 95.460938 89.257812 96.488281 89.515625 97.511719 C 89.929688 98.632812 90.859375 99.464844 91.953125 99.882812 C 93.167969 100.363281 94.386719 100.8125 95.605469 101.324219 C 98.042969 102.316406 100.449219 103.40625 102.789062 104.625 C 100.257812 103.953125 97.753906 103.152344 95.285156 102.253906 Z M 95.445312 122.183594 C 94.195312 121.734375 92.976562 121.285156 91.757812 120.804688 C 90.378906 120.292969 89.257812 119.140625 88.808594 117.730469 L 88.808594 117.695312 C 88.648438 116.640625 88.457031 115.550781 88.328125 114.492188 C 88.265625 113.949219 88.199219 113.4375 88.136719 112.890625 C 88.070312 112.347656 88.007812 111.800781 87.976562 111.289062 C 88.167969 111.800781 88.328125 112.3125 88.457031 112.828125 C 88.617188 113.339844 88.777344 113.851562 88.9375 114.398438 C 89.226562 115.421875 89.480469 116.449219 89.738281 117.503906 C 90.1875 118.59375 91.085938 119.425781 92.175781 119.84375 C 93.425781 120.292969 94.644531 120.773438 95.832031 121.285156 C 98.269531 122.277344 100.671875 123.367188 103.015625 124.554688 C 100.449219 123.882812 97.949219 123.078125 95.445312 122.183594 Z M 103.015625 62.234375 C 102.339844 61.59375 101.667969 60.664062 101.347656 59.703125 C 100.992188 58.710938 100.960938 57.621094 101.121094 56.597656 C 101.21875 56.082031 101.378906 55.570312 101.636719 55.121094 C 101.859375 54.671875 102.082031 54.257812 102.308594 53.808594 C 102.789062 52.976562 103.238281 52.109375 103.75 51.308594 C 104.777344 49.675781 105.867188 48.074219 107.085938 46.597656 C 106.253906 48.328125 105.386719 50.058594 104.519531 51.757812 L 103.238281 54.320312 L 102.628906 55.601562 C 102.4375 55.988281 102.308594 56.402344 102.246094 56.851562 C 102.050781 57.683594 102.117188 58.582031 102.371094 59.414062 C 102.628906 60.28125 103.078125 60.953125 103.71875 61.722656 C 104.839844 63.132812 105.898438 64.574219 106.925781 66.082031 C 106.988281 66.175781 107.054688 66.273438 107.117188 66.367188 C 107.023438 66.273438 106.925781 66.175781 106.828125 66.082031 C 105.484375 64.832031 104.199219 63.550781 103.015625 62.234375 Z M 126.390625 112.859375 C 126.324219 113.402344 126.292969 113.949219 126.199219 114.460938 C 126.035156 115.550781 125.875 116.609375 125.714844 117.664062 L 125.714844 117.730469 C 125.265625 119.105469 124.144531 120.292969 122.765625 120.773438 C 121.515625 121.253906 120.296875 121.703125 119.046875 122.152344 C 116.578125 123.015625 114.078125 123.816406 111.480469 124.457031 C 113.820312 123.238281 116.226562 122.183594 118.660156 121.191406 C 119.878906 120.675781 121.097656 120.195312 122.316406 119.746094 C 123.40625 119.363281 124.304688 118.5 124.753906 117.375 C 125.011719 116.351562 125.265625 115.324219 125.554688 114.300781 C 125.683594 113.789062 125.84375 113.277344 126.003906 112.730469 C 126.164062 112.21875 126.324219 111.707031 126.484375 111.191406 C 126.519531 111.800781 126.453125 112.347656 126.390625 112.859375 Z M 126.390625 112.859375 " fill-opacity="1" fill-rule="nonzero"/><path fill="#414858" d="M 166.886719 134.292969 C 164.578125 135.191406 162.816406 137.144531 162.175781 139.582031 L 161.695312 142.464844 L 161.695312 130.832031 L 176.574219 125.164062 C 178.785156 124.328125 180.515625 122.503906 181.253906 120.226562 L 183.851562 107.667969 L 166.726562 114.363281 C 164.417969 115.261719 162.65625 117.25 162.015625 119.652344 L 161.726562 121.382812 L 161.726562 110.808594 L 176.410156 105.234375 C 178.65625 104.367188 180.355469 102.574219 181.09375 100.300781 L 183.691406 87.738281 L 166.566406 94.46875 C 164.226562 95.363281 162.496094 97.320312 161.855469 99.753906 L 161.757812 100.425781 L 161.757812 91.167969 C 164.128906 88.507812 168.300781 83.734375 169.582031 81.652344 C 171.378906 78.671875 160.089844 62.203125 160.089844 62.203125 C 160.089844 62.203125 148.835938 78.671875 150.632812 81.652344 C 151.882812 83.734375 156.050781 88.507812 158.421875 91.167969 L 158.421875 102.574219 L 157.941406 99.753906 C 157.300781 97.351562 155.539062 95.363281 153.230469 94.46875 L 136.105469 87.738281 L 138.703125 100.300781 C 139.441406 102.574219 141.140625 104.398438 143.382812 105.234375 L 158.421875 110.96875 L 158.421875 121.382812 L 158.132812 119.652344 C 157.492188 117.25 155.730469 115.261719 153.421875 114.363281 L 136.296875 107.667969 L 138.894531 120.226562 C 139.632812 122.503906 141.332031 124.328125 143.578125 125.164062 L 158.421875 130.832031 L 158.421875 140.191406 L 158.328125 139.582031 C 157.6875 137.175781 155.921875 135.222656 153.613281 134.292969 L 136.492188 127.566406 L 139.085938 140.125 C 139.824219 142.398438 141.523438 144.226562 143.769531 145.058594 L 158.457031 150.632812 L 158.457031 173.542969 L 161.789062 173.542969 L 161.789062 150.761719 L 176.828125 145.027344 C 179.074219 144.164062 180.773438 142.367188 181.511719 140.09375 L 184.109375 127.535156 Z M 171.441406 122.984375 C 172.660156 122.472656 173.878906 121.992188 175.097656 121.542969 C 176.1875 121.15625 177.085938 120.292969 177.535156 119.203125 L 177.535156 119.171875 C 177.789062 118.144531 178.046875 117.121094 178.335938 116.09375 C 178.496094 115.582031 178.65625 115.039062 178.816406 114.523438 C 178.976562 114.011719 179.136719 113.46875 179.296875 112.957031 C 179.265625 113.5 179.203125 114.042969 179.136719 114.589844 C 179.074219 115.132812 179.042969 115.679688 178.945312 116.191406 C 178.785156 117.25 178.625 118.339844 178.464844 119.394531 L 178.433594 119.460938 C 177.984375 120.835938 176.859375 122.023438 175.480469 122.535156 C 174.261719 123.015625 173.011719 123.464844 171.792969 123.914062 C 169.324219 124.777344 166.792969 125.578125 164.226562 126.25 C 166.632812 125.066406 169.003906 123.976562 171.441406 122.984375 Z M 171.28125 103.054688 C 172.5 102.542969 173.71875 102.0625 174.9375 101.613281 C 176.027344 101.226562 176.925781 100.363281 177.375 99.242188 C 177.628906 98.214844 177.886719 97.191406 178.175781 96.164062 C 178.304688 95.652344 178.464844 95.140625 178.625 94.597656 C 178.785156 94.082031 178.945312 93.539062 179.105469 93.027344 C 179.074219 93.570312 179.007812 94.117188 178.945312 94.660156 C 178.882812 95.203125 178.816406 95.75 178.753906 96.261719 C 178.59375 97.351562 178.433594 98.410156 178.273438 99.464844 L 178.273438 99.5 C 177.824219 100.875 176.699219 102.0625 175.320312 102.574219 C 174.070312 103.054688 172.851562 103.503906 171.601562 103.953125 C 169.132812 104.847656 166.632812 105.617188 164.035156 106.289062 C 166.441406 105.136719 168.84375 104.078125 171.28125 103.054688 Z M 148.035156 104.015625 C 146.785156 103.566406 145.566406 103.117188 144.347656 102.636719 C 142.96875 102.125 141.84375 100.972656 141.394531 99.5625 L 141.394531 99.53125 C 141.234375 98.472656 141.042969 97.382812 140.914062 96.328125 C 140.851562 95.78125 140.789062 95.238281 140.722656 94.722656 C 140.660156 94.179688 140.59375 93.636719 140.5625 93.089844 C 140.753906 93.601562 140.914062 94.117188 141.042969 94.660156 C 141.203125 95.171875 141.363281 95.683594 141.523438 96.230469 C 141.8125 97.253906 142.070312 98.3125 142.359375 99.339844 C 142.359375 99.339844 142.328125 99.304688 142.328125 99.304688 L 142.359375 99.371094 C 142.808594 100.460938 143.707031 101.292969 144.761719 101.675781 C 146.015625 102.125 147.230469 102.605469 148.417969 103.117188 C 150.855469 104.113281 153.261719 105.203125 155.601562 106.417969 C 153.035156 105.714844 150.535156 104.914062 148.035156 104.015625 Z M 148.226562 123.945312 C 146.976562 123.496094 145.757812 123.046875 144.507812 122.566406 C 143.128906 122.054688 142.003906 120.902344 141.558594 119.492188 L 141.558594 119.425781 C 141.363281 118.371094 141.203125 117.28125 141.074219 116.222656 C 141.011719 115.679688 140.949219 115.132812 140.882812 114.621094 C 140.820312 114.078125 140.753906 113.53125 140.722656 112.988281 C 140.914062 113.5 141.042969 114.011719 141.203125 114.558594 C 141.363281 115.070312 141.523438 115.582031 141.652344 116.128906 C 141.941406 117.152344 142.199219 118.179688 142.453125 119.203125 C 142.871094 120.324219 143.800781 121.15625 144.890625 121.574219 C 146.109375 122.054688 147.328125 122.503906 148.546875 123.015625 C 150.984375 124.007812 153.390625 125.097656 155.730469 126.316406 C 153.230469 125.609375 150.726562 124.84375 148.226562 123.945312 Z M 148.417969 143.875 C 147.167969 143.425781 145.949219 142.976562 144.730469 142.496094 C 143.351562 141.984375 142.230469 140.832031 141.78125 139.421875 L 141.78125 139.386719 C 141.621094 138.332031 141.429688 137.242188 141.300781 136.183594 C 141.234375 135.640625 141.171875 135.128906 141.109375 134.582031 C 141.042969 134.039062 140.980469 133.492188 140.949219 132.980469 C 141.140625 133.492188 141.300781 134.003906 141.429688 134.519531 C 141.589844 135.03125 141.75 135.542969 141.910156 136.089844 C 142.199219 137.113281 142.453125 138.140625 142.710938 139.195312 C 143.160156 140.285156 144.058594 141.117188 145.148438 141.535156 C 146.398438 141.984375 147.617188 142.464844 148.804688 142.976562 C 151.242188 143.96875 153.644531 145.058594 155.984375 146.246094 C 153.390625 145.539062 150.886719 144.738281 148.417969 143.875 Z M 155.953125 83.925781 C 155.28125 83.285156 154.605469 82.355469 154.285156 81.394531 C 153.933594 80.402344 153.902344 79.3125 154.0625 78.289062 C 154.160156 77.773438 154.320312 77.261719 154.574219 76.8125 C 154.800781 76.363281 155.023438 75.949219 155.25 75.5 C 155.730469 74.667969 156.179688 73.800781 156.691406 73 C 157.71875 71.367188 158.808594 69.765625 160.027344 68.289062 C 159.191406 70.019531 158.328125 71.75 157.460938 73.449219 L 156.179688 76.011719 L 155.570312 77.292969 C 155.378906 77.679688 155.25 78.09375 155.183594 78.542969 C 154.992188 79.375 155.054688 80.273438 155.3125 81.105469 C 155.570312 81.972656 156.019531 82.644531 156.660156 83.414062 C 157.78125 84.824219 158.839844 86.265625 159.867188 87.769531 C 159.929688 87.867188 159.996094 87.964844 160.058594 88.058594 C 159.960938 87.964844 159.867188 87.867188 159.769531 87.769531 C 158.421875 86.523438 157.171875 85.238281 155.953125 83.925781 Z M 179.328125 134.550781 C 179.265625 135.09375 179.234375 135.640625 179.136719 136.152344 C 178.976562 137.242188 178.816406 138.300781 178.65625 139.355469 L 178.65625 139.421875 C 178.207031 140.796875 177.085938 141.984375 175.707031 142.464844 C 174.457031 142.945312 173.238281 143.394531 171.988281 143.84375 C 169.519531 144.707031 167.015625 145.507812 164.417969 146.148438 C 166.761719 144.929688 169.164062 143.875 171.601562 142.882812 C 172.820312 142.367188 174.039062 141.886719 175.257812 141.4375 C 176.347656 141.054688 177.246094 140.191406 177.695312 139.066406 C 177.949219 138.042969 178.207031 137.015625 178.496094 135.992188 C 178.625 135.480469 178.785156 134.96875 178.945312 134.421875 C 179.105469 133.910156 179.265625 133.398438 179.425781 132.882812 C 179.457031 133.460938 179.394531 134.003906 179.328125 134.550781 Z M 179.328125 134.550781 " fill-opacity="1" fill-rule="nonzero"/><g clip-path="url(#2b7df43c3a)"><path fill="#414858" d="M 296.816406 84.214844 L 299.414062 96.773438 C 300.152344 99.050781 301.851562 100.875 304.097656 101.707031 L 319.136719 107.445312 L 319.136719 130.226562 L 322.472656 130.226562 L 322.472656 107.316406 L 337.15625 101.742188 C 339.371094 100.875 341.101562 99.082031 341.839844 96.808594 L 344.4375 84.246094 L 327.3125 90.976562 C 325.003906 91.871094 323.242188 93.828125 322.597656 96.261719 L 322.503906 96.871094 L 322.503906 87.515625 L 337.347656 81.84375 C 339.59375 81.011719 341.292969 79.183594 342.03125 76.910156 L 344.628906 64.351562 L 327.503906 71.046875 C 325.164062 71.945312 323.433594 73.929688 322.792969 76.332031 L 322.503906 78.0625 L 322.503906 67.648438 L 337.542969 61.914062 C 339.753906 61.050781 341.484375 59.253906 342.222656 56.980469 L 344.820312 44.421875 L 327.699219 51.148438 C 325.390625 52.046875 323.625 54 322.984375 56.4375 L 322.503906 59.253906 L 322.503906 47.847656 C 324.875 45.191406 329.042969 40.414062 330.292969 38.332031 C 332.089844 35.351562 320.835938 18.882812 320.835938 18.882812 C 320.835938 18.882812 309.582031 35.351562 311.34375 38.332031 C 312.59375 40.414062 316.796875 45.191406 319.167969 47.847656 L 319.167969 57.078125 L 319.070312 56.402344 C 318.429688 54 316.667969 52.015625 314.359375 51.117188 L 297.234375 44.390625 L 299.832031 56.949219 C 300.570312 59.222656 302.269531 61.050781 304.515625 61.882812 L 319.199219 67.457031 L 319.199219 78.03125 L 318.910156 76.300781 C 318.269531 73.898438 316.507812 71.910156 314.199219 71.015625 L 297.074219 64.316406 L 299.671875 76.878906 C 300.410156 79.152344 302.109375 80.980469 304.355469 81.8125 L 319.230469 87.484375 L 319.230469 99.113281 L 318.75 96.230469 C 318.109375 93.828125 316.347656 91.871094 314.039062 90.945312 Z M 316.539062 82.902344 C 313.972656 82.261719 311.472656 81.460938 308.972656 80.5625 C 307.71875 80.113281 306.503906 79.664062 305.285156 79.183594 C 303.90625 78.671875 302.78125 77.519531 302.332031 76.109375 L 302.300781 76.042969 C 302.140625 74.988281 301.949219 73.898438 301.820312 72.839844 C 301.757812 72.296875 301.691406 71.75 301.628906 71.238281 C 301.5625 70.695312 301.5 70.148438 301.46875 69.605469 C 301.660156 70.117188 301.820312 70.628906 301.949219 71.175781 C 302.109375 71.6875 302.269531 72.199219 302.429688 72.746094 C 302.71875 73.769531 302.976562 74.796875 303.230469 75.820312 L 303.230469 75.851562 C 303.679688 76.941406 304.578125 77.808594 305.667969 78.191406 C 306.917969 78.671875 308.136719 79.121094 309.324219 79.632812 C 311.792969 80.625 314.199219 81.683594 316.539062 82.902344 Z M 316.730469 62.972656 C 314.164062 62.332031 311.664062 61.53125 309.164062 60.632812 C 307.914062 60.183594 306.695312 59.734375 305.445312 59.253906 C 304.066406 58.742188 302.941406 57.589844 302.492188 56.179688 L 302.492188 56.148438 C 302.300781 55.089844 302.140625 54 302.011719 52.945312 C 301.949219 52.398438 301.882812 51.855469 301.820312 51.339844 C 301.757812 50.796875 301.691406 50.253906 301.660156 49.707031 C 301.851562 50.21875 301.980469 50.734375 302.140625 51.277344 C 302.300781 51.789062 302.460938 52.304688 302.589844 52.847656 C 302.878906 53.871094 303.136719 54.898438 303.390625 55.921875 C 303.839844 57.011719 304.738281 57.878906 305.828125 58.292969 C 307.046875 58.742188 308.265625 59.222656 309.484375 59.734375 C 311.984375 60.699219 314.390625 61.753906 316.730469 62.972656 Z M 325.226562 62.972656 C 327.570312 61.753906 329.972656 60.664062 332.410156 59.671875 C 333.628906 59.160156 334.847656 58.679688 336.066406 58.230469 C 337.15625 57.847656 338.023438 57.011719 338.472656 55.921875 L 338.503906 55.859375 C 338.503906 55.859375 338.503906 55.890625 338.472656 55.890625 C 338.726562 54.867188 339.015625 53.808594 339.304688 52.785156 C 339.464844 52.269531 339.625 51.757812 339.785156 51.214844 C 339.945312 50.699219 340.105469 50.15625 340.265625 49.644531 C 340.234375 50.1875 340.171875 50.734375 340.105469 51.277344 C 340.042969 51.820312 340.011719 52.367188 339.914062 52.878906 C 339.753906 53.96875 339.59375 55.027344 339.433594 56.082031 L 339.433594 56.117188 C 338.984375 57.492188 337.863281 58.679688 336.484375 59.191406 C 335.265625 59.671875 334.015625 60.121094 332.796875 60.570312 C 330.292969 61.53125 327.792969 62.332031 325.226562 62.972656 Z M 325.035156 82.902344 C 327.375 81.683594 329.78125 80.59375 332.21875 79.601562 C 333.4375 79.089844 334.65625 78.609375 335.875 78.160156 C 336.964844 77.773438 337.894531 76.910156 338.3125 75.789062 C 338.566406 74.761719 338.824219 73.738281 339.113281 72.710938 C 339.242188 72.199219 339.402344 71.65625 339.5625 71.140625 C 339.722656 70.628906 339.882812 70.085938 340.042969 69.574219 C 340.011719 70.117188 339.945312 70.660156 339.882812 71.207031 C 339.816406 71.75 339.753906 72.296875 339.691406 72.808594 C 339.53125 73.867188 339.371094 74.957031 339.207031 76.011719 L 339.207031 76.078125 C 338.761719 77.453125 337.636719 78.640625 336.257812 79.152344 C 335.007812 79.632812 333.789062 80.082031 332.539062 80.53125 C 330.101562 81.460938 327.601562 82.261719 325.035156 82.902344 Z M 324.84375 102.832031 C 327.183594 101.613281 329.589844 100.554688 332.027344 99.5625 C 333.246094 99.050781 334.464844 98.570312 335.683594 98.121094 C 336.773438 97.734375 337.667969 96.871094 338.117188 95.78125 C 338.375 94.722656 338.632812 93.699219 338.921875 92.671875 C 339.082031 92.160156 339.242188 91.648438 339.402344 91.105469 C 339.5625 90.589844 339.722656 90.078125 339.882812 89.566406 C 339.851562 90.109375 339.785156 90.65625 339.722656 91.167969 C 339.65625 91.710938 339.625 92.257812 339.53125 92.769531 C 339.371094 93.859375 339.207031 94.917969 339.046875 95.972656 L 339.046875 96.003906 C 338.601562 97.382812 337.476562 98.570312 336.097656 99.082031 C 334.878906 99.5625 333.628906 100.011719 332.410156 100.460938 C 329.941406 101.386719 327.410156 102.191406 324.84375 102.832031 Z M 321.09375 44.355469 C 320.996094 44.453125 320.898438 44.550781 320.804688 44.644531 C 320.867188 44.550781 320.929688 44.453125 320.996094 44.355469 C 322.023438 42.851562 323.078125 41.410156 324.203125 40 C 324.84375 39.230469 325.292969 38.558594 325.550781 37.691406 C 325.804688 36.859375 325.835938 35.960938 325.675781 35.128906 C 325.613281 34.710938 325.453125 34.296875 325.292969 33.878906 L 324.683594 32.597656 L 323.402344 30.035156 C 322.535156 28.335938 321.667969 26.636719 320.835938 24.875 C 322.023438 26.382812 323.144531 27.953125 324.171875 29.585938 C 324.683594 30.386719 325.164062 31.253906 325.613281 32.085938 C 325.835938 32.5 326.0625 32.949219 326.285156 33.398438 C 326.511719 33.878906 326.671875 34.359375 326.800781 34.871094 C 326.992188 35.898438 326.929688 36.988281 326.574219 37.980469 C 326.253906 38.972656 325.582031 39.871094 324.90625 40.511719 C 323.65625 41.859375 322.375 43.140625 321.09375 44.355469 Z M 301.308594 89.566406 C 301.5 90.078125 301.628906 90.589844 301.789062 91.105469 C 301.949219 91.617188 302.109375 92.128906 302.238281 92.671875 C 302.527344 93.699219 302.78125 94.722656 303.039062 95.75 C 303.488281 96.839844 304.386719 97.703125 305.476562 98.121094 C 306.695312 98.601562 307.914062 99.050781 309.132812 99.5625 C 311.570312 100.554688 313.972656 101.644531 316.3125 102.832031 C 313.75 102.191406 311.246094 101.386719 308.746094 100.523438 C 307.496094 100.074219 306.277344 99.625 305.027344 99.144531 C 303.648438 98.632812 302.527344 97.480469 302.078125 96.101562 L 302.078125 96.039062 C 301.882812 94.980469 301.722656 93.890625 301.597656 92.832031 C 301.5 92.289062 301.46875 91.777344 301.402344 91.230469 C 301.4375 90.65625 301.339844 90.109375 301.308594 89.566406 Z M 301.308594 89.566406 " fill-opacity="1" fill-rule="nonzero"/></g><path fill="#414858" d="M 243.847656 105.90625 L 246.441406 118.464844 C 247.179688 120.742188 248.878906 122.566406 251.125 123.398438 L 266.164062 129.136719 L 266.164062 151.917969 L 269.5 151.917969 L 269.5 129.007812 L 284.183594 123.433594 C 286.398438 122.566406 288.128906 120.773438 288.867188 118.5 L 291.464844 105.9375 L 274.339844 112.667969 C 272 113.5625 270.269531 115.519531 269.625 117.953125 L 269.53125 118.5625 L 269.53125 109.207031 L 284.375 103.535156 C 286.621094 102.703125 288.320312 100.875 289.058594 98.601562 L 291.65625 86.042969 L 274.53125 92.738281 C 272.191406 93.632812 270.460938 95.621094 269.820312 98.023438 L 269.53125 99.753906 L 269.53125 89.339844 L 284.570312 83.605469 C 286.78125 82.742188 288.511719 80.945312 289.25 78.671875 L 291.847656 66.113281 L 274.726562 72.839844 C 272.417969 73.738281 270.652344 75.691406 270.011719 78.128906 L 269.53125 80.945312 L 269.53125 69.539062 C 271.902344 66.882812 276.070312 62.105469 277.324219 60.023438 C 279.117188 57.042969 267.863281 40.574219 267.863281 40.574219 C 267.863281 40.574219 256.609375 57.042969 258.371094 60.023438 C 259.621094 62.105469 263.824219 66.882812 266.195312 69.539062 L 266.195312 78.769531 L 266.097656 78.09375 C 265.457031 75.691406 263.695312 73.707031 261.386719 72.808594 L 244.261719 66.078125 L 246.859375 78.640625 C 247.597656 80.914062 249.296875 82.742188 251.542969 83.574219 L 266.226562 89.148438 L 266.226562 99.722656 L 265.9375 97.992188 C 265.296875 95.589844 263.535156 93.601562 261.226562 92.707031 L 244.101562 86.007812 L 246.699219 98.570312 C 247.4375 100.84375 249.136719 102.671875 251.382812 103.503906 L 266.257812 109.175781 L 266.257812 120.804688 L 265.777344 117.921875 C 265.136719 115.519531 263.375 113.5625 261.066406 112.632812 Z M 263.597656 104.59375 C 261.03125 103.953125 258.53125 103.152344 256.03125 102.253906 C 254.78125 101.804688 253.5625 101.355469 252.34375 100.875 C 250.964844 100.363281 249.84375 99.210938 249.394531 97.800781 L 249.359375 97.734375 C 249.199219 96.679688 249.007812 95.589844 248.878906 94.53125 C 248.816406 93.988281 248.75 93.441406 248.6875 92.929688 C 248.625 92.386719 248.558594 91.839844 248.527344 91.296875 C 248.71875 91.808594 248.878906 92.320312 249.007812 92.867188 C 249.167969 93.378906 249.328125 93.890625 249.488281 94.4375 C 249.777344 95.460938 250.035156 96.488281 250.292969 97.511719 L 250.292969 97.542969 C 250.738281 98.632812 251.636719 99.5 252.726562 99.882812 C 253.980469 100.363281 255.195312 100.8125 256.382812 101.324219 C 258.851562 102.285156 261.257812 103.375 263.597656 104.59375 Z M 263.789062 84.664062 C 261.226562 84.023438 258.722656 83.222656 256.222656 82.324219 C 254.972656 81.875 253.753906 81.425781 252.503906 80.945312 C 251.125 80.433594 250.003906 79.28125 249.554688 77.871094 L 249.554688 77.839844 C 249.359375 76.78125 249.199219 75.691406 249.074219 74.636719 C 249.007812 74.089844 248.945312 73.546875 248.878906 73.03125 C 248.816406 72.488281 248.753906 71.945312 248.71875 71.398438 C 248.914062 71.910156 249.039062 72.425781 249.199219 72.96875 C 249.359375 73.480469 249.523438 73.992188 249.648438 74.539062 C 249.9375 75.5625 250.195312 76.589844 250.453125 77.613281 C 250.898438 78.703125 251.796875 79.570312 252.886719 79.984375 C 254.105469 80.433594 255.324219 80.914062 256.542969 81.425781 C 259.046875 82.386719 261.449219 83.445312 263.789062 84.664062 Z M 272.289062 84.664062 C 274.628906 83.445312 277.035156 82.355469 279.472656 81.363281 C 280.6875 80.851562 281.90625 80.371094 283.125 79.921875 C 284.214844 79.535156 285.082031 78.703125 285.53125 77.613281 L 285.5625 77.550781 C 285.5625 77.550781 285.5625 77.582031 285.53125 77.582031 C 285.789062 76.558594 286.078125 75.5 286.363281 74.476562 C 286.523438 73.960938 286.683594 73.449219 286.847656 72.90625 C 287.007812 72.390625 287.167969 71.847656 287.328125 71.335938 C 287.292969 71.878906 287.230469 72.425781 287.167969 72.96875 C 287.101562 73.511719 287.070312 74.058594 286.972656 74.570312 C 286.8125 75.660156 286.652344 76.71875 286.492188 77.773438 L 286.492188 77.808594 C 286.042969 79.183594 284.921875 80.371094 283.542969 80.882812 C 282.324219 81.363281 281.074219 81.8125 279.855469 82.261719 C 277.355469 83.222656 274.820312 84.023438 272.289062 84.664062 Z M 272.09375 104.59375 C 274.4375 103.375 276.839844 102.285156 279.277344 101.292969 C 280.496094 100.78125 281.714844 100.300781 282.933594 99.851562 C 284.023438 99.464844 284.953125 98.601562 285.371094 97.480469 C 285.628906 96.453125 285.882812 95.429688 286.171875 94.402344 C 286.300781 93.890625 286.460938 93.347656 286.621094 92.832031 C 286.78125 92.320312 286.941406 91.777344 287.101562 91.265625 C 287.070312 91.808594 287.007812 92.351562 286.941406 92.898438 C 286.878906 93.441406 286.8125 93.988281 286.75 94.5 C 286.589844 95.558594 286.429688 96.648438 286.269531 97.703125 L 286.269531 97.769531 C 285.820312 99.144531 284.699219 100.332031 283.320312 100.84375 C 282.066406 101.324219 280.851562 101.773438 279.597656 102.222656 C 277.160156 103.152344 274.660156 103.953125 272.09375 104.59375 Z M 271.902344 124.523438 C 274.242188 123.304688 276.648438 122.246094 279.085938 121.253906 C 280.304688 120.742188 281.523438 120.261719 282.742188 119.8125 C 283.832031 119.425781 284.730469 118.5625 285.179688 117.472656 C 285.433594 116.414062 285.691406 115.390625 285.980469 114.363281 C 286.140625 113.851562 286.300781 113.339844 286.460938 112.796875 C 286.621094 112.28125 286.78125 111.769531 286.941406 111.257812 C 286.910156 111.800781 286.847656 112.347656 286.78125 112.859375 C 286.71875 113.402344 286.6875 113.949219 286.589844 114.460938 C 286.429688 115.550781 286.269531 116.609375 286.109375 117.664062 L 286.109375 117.695312 C 285.660156 119.074219 284.539062 120.261719 283.160156 120.773438 C 281.941406 121.253906 280.6875 121.703125 279.472656 122.152344 C 276.96875 123.078125 274.46875 123.882812 271.902344 124.523438 Z M 268.152344 66.046875 C 268.054688 66.144531 267.960938 66.242188 267.863281 66.335938 C 267.925781 66.242188 267.992188 66.144531 268.054688 66.046875 C 269.082031 64.542969 270.140625 63.101562 271.261719 61.691406 C 271.902344 60.921875 272.351562 60.25 272.609375 59.382812 C 272.867188 58.550781 272.898438 57.652344 272.738281 56.820312 C 272.671875 56.402344 272.511719 55.988281 272.351562 55.570312 L 271.742188 54.289062 L 270.460938 51.726562 C 269.59375 50.027344 268.730469 48.328125 267.894531 46.566406 C 269.082031 48.074219 270.203125 49.644531 271.230469 51.277344 C 271.742188 52.078125 272.222656 52.945312 272.671875 53.777344 C 272.898438 54.191406 273.121094 54.640625 273.347656 55.089844 C 273.570312 55.570312 273.730469 56.050781 273.859375 56.5625 C 274.050781 57.589844 273.988281 58.679688 273.636719 59.671875 C 273.3125 60.664062 272.640625 61.5625 271.96875 62.203125 C 270.71875 63.550781 269.433594 64.832031 268.152344 66.046875 Z M 248.367188 111.257812 C 248.558594 111.769531 248.6875 112.28125 248.847656 112.796875 C 249.007812 113.308594 249.167969 113.820312 249.296875 114.363281 C 249.585938 115.390625 249.84375 116.414062 250.097656 117.441406 C 250.546875 118.53125 251.445312 119.394531 252.535156 119.8125 C 253.753906 120.292969 254.972656 120.742188 256.191406 121.253906 C 258.628906 122.246094 261.03125 123.335938 263.375 124.523438 C 260.808594 123.882812 258.308594 123.078125 255.804688 122.214844 C 254.554688 121.765625 253.335938 121.316406 252.085938 120.835938 C 250.707031 120.324219 249.585938 119.171875 249.136719 117.792969 L 249.136719 117.730469 C 248.945312 116.671875 248.785156 115.582031 248.65625 114.523438 C 248.558594 113.980469 248.527344 113.46875 248.464844 112.921875 C 248.464844 112.347656 248.398438 111.800781 248.367188 111.257812 Z M 248.367188 111.257812 " fill-opacity="1" fill-rule="nonzero"/><path fill="#414858" d="M 190.90625 127.597656 L 193.503906 140.15625 C 194.242188 142.433594 195.941406 144.257812 198.183594 145.089844 L 213.222656 150.828125 L 213.222656 173.609375 L 216.558594 173.609375 L 216.558594 150.699219 L 231.246094 145.125 C 233.457031 144.257812 235.1875 142.464844 235.925781 140.191406 L 238.523438 127.628906 L 221.398438 134.359375 C 219.089844 135.253906 217.328125 137.210938 216.6875 139.644531 L 216.589844 140.253906 L 216.589844 130.898438 L 231.4375 125.226562 C 233.679688 124.394531 235.378906 122.566406 236.117188 120.292969 L 238.714844 107.734375 L 221.59375 114.429688 C 219.25 115.324219 217.519531 117.3125 216.878906 119.714844 L 216.589844 121.445312 L 216.589844 111.03125 L 231.628906 105.296875 C 233.839844 104.433594 235.574219 102.636719 236.308594 100.363281 L 238.90625 87.804688 L 221.785156 94.53125 C 219.476562 95.429688 217.710938 97.382812 217.070312 99.820312 L 216.589844 102.636719 L 216.589844 91.167969 C 218.964844 88.507812 223.132812 83.734375 224.382812 81.652344 C 226.179688 78.671875 214.921875 62.203125 214.921875 62.203125 C 214.921875 62.203125 203.667969 78.671875 205.429688 81.652344 C 206.683594 83.734375 210.882812 88.507812 213.253906 91.167969 L 213.253906 100.394531 L 213.128906 99.722656 C 212.484375 97.320312 210.722656 95.332031 208.414062 94.4375 L 191.289062 87.707031 L 193.886719 100.265625 C 194.625 102.542969 196.324219 104.367188 198.570312 105.203125 L 213.253906 110.777344 L 213.253906 121.351562 L 212.964844 119.621094 C 212.324219 117.214844 210.5625 115.230469 208.253906 114.332031 L 191.128906 107.636719 L 193.726562 120.195312 C 194.464844 122.472656 196.164062 124.296875 198.410156 125.128906 L 213.289062 130.800781 L 213.289062 142.433594 L 212.804688 139.546875 C 212.164062 137.144531 210.402344 135.191406 208.09375 134.261719 Z M 210.65625 126.285156 C 208.09375 125.644531 205.589844 124.84375 203.089844 123.945312 C 201.839844 123.496094 200.621094 123.046875 199.402344 122.566406 C 198.023438 122.054688 196.902344 120.902344 196.453125 119.492188 L 196.421875 119.425781 C 196.261719 118.371094 196.066406 117.28125 195.941406 116.222656 C 195.875 115.679688 195.8125 115.132812 195.746094 114.621094 C 195.683594 114.078125 195.621094 113.53125 195.585938 112.988281 C 195.78125 113.5 195.941406 114.011719 196.066406 114.558594 C 196.230469 115.070312 196.390625 115.582031 196.550781 116.128906 C 196.835938 117.152344 197.09375 118.179688 197.351562 119.203125 L 197.351562 119.234375 C 197.800781 120.324219 198.699219 121.191406 199.789062 121.574219 C 201.039062 122.054688 202.257812 122.503906 203.441406 123.015625 C 205.914062 123.976562 208.285156 125.066406 210.65625 126.285156 Z M 210.851562 106.355469 C 208.285156 105.714844 205.785156 104.914062 203.28125 104.015625 C 202.03125 103.566406 200.8125 103.117188 199.5625 102.636719 C 198.183594 102.125 197.0625 100.972656 196.613281 99.5625 L 196.613281 99.53125 C 196.421875 98.472656 196.261719 97.382812 196.132812 96.328125 C 196.066406 95.78125 196.003906 95.238281 195.941406 94.722656 C 195.875 94.179688 195.8125 93.636719 195.78125 93.089844 C 195.972656 93.601562 196.101562 94.117188 196.261719 94.660156 C 196.421875 95.171875 196.582031 95.683594 196.710938 96.230469 C 197 97.253906 197.253906 98.28125 197.511719 99.304688 C 197.960938 100.394531 198.859375 101.261719 199.949219 101.675781 C 201.167969 102.125 202.386719 102.605469 203.605469 103.117188 C 206.074219 104.078125 208.476562 105.136719 210.851562 106.355469 Z M 219.316406 106.355469 C 221.65625 105.136719 224.0625 104.046875 226.5 103.054688 C 227.71875 102.542969 228.933594 102.0625 230.152344 101.613281 C 231.242188 101.226562 232.109375 100.394531 232.558594 99.304688 L 232.589844 99.242188 C 232.589844 99.242188 232.589844 99.273438 232.558594 99.273438 C 232.816406 98.25 233.105469 97.191406 233.390625 96.164062 C 233.554688 95.652344 233.714844 95.140625 233.875 94.597656 C 234.035156 94.082031 234.195312 93.539062 234.355469 93.027344 C 234.324219 93.570312 234.257812 94.117188 234.195312 94.660156 C 234.128906 95.203125 234.097656 95.75 234 96.261719 C 233.839844 97.351562 233.679688 98.410156 233.519531 99.464844 L 233.519531 99.5 C 233.070312 100.875 231.949219 102.0625 230.570312 102.574219 C 229.351562 103.054688 228.101562 103.503906 226.882812 103.953125 C 224.382812 104.914062 221.882812 105.714844 219.316406 106.355469 Z M 219.125 126.285156 C 221.464844 125.066406 223.867188 123.976562 226.304688 122.984375 C 227.523438 122.472656 228.742188 121.992188 229.960938 121.542969 C 231.050781 121.15625 231.980469 120.292969 232.398438 119.171875 C 232.65625 118.144531 232.910156 117.121094 233.199219 116.09375 C 233.328125 115.582031 233.488281 115.039062 233.648438 114.523438 C 233.808594 114.011719 233.96875 113.46875 234.128906 112.957031 C 234.097656 113.5 234.035156 114.042969 233.96875 114.589844 C 233.90625 115.132812 233.839844 115.679688 233.777344 116.191406 C 233.617188 117.25 233.457031 118.339844 233.296875 119.394531 L 233.296875 119.460938 C 232.847656 120.835938 231.726562 122.023438 230.347656 122.535156 C 229.097656 123.015625 227.878906 123.464844 226.625 123.914062 C 224.191406 124.84375 221.6875 125.609375 219.125 126.285156 Z M 218.964844 146.214844 C 221.304688 144.996094 223.707031 143.9375 226.144531 142.945312 C 227.363281 142.433594 228.582031 141.953125 229.800781 141.503906 C 230.890625 141.117188 231.789062 140.253906 232.238281 139.164062 C 232.496094 138.105469 232.75 137.082031 233.039062 136.054688 C 233.199219 135.542969 233.359375 135.03125 233.519531 134.484375 C 233.679688 133.972656 233.839844 133.460938 234 132.949219 C 233.96875 133.492188 233.90625 134.039062 233.839844 134.550781 C 233.777344 135.09375 233.746094 135.640625 233.648438 136.152344 C 233.488281 137.242188 233.328125 138.300781 233.167969 139.355469 L 233.167969 139.386719 C 232.71875 140.765625 231.597656 141.953125 230.21875 142.464844 C 229 142.945312 227.75 143.394531 226.53125 143.84375 C 224.03125 144.738281 221.527344 145.539062 218.964844 146.214844 Z M 215.179688 87.738281 C 215.082031 87.835938 214.988281 87.929688 214.890625 88.027344 C 214.953125 87.929688 215.019531 87.835938 215.082031 87.738281 C 216.109375 86.234375 217.167969 84.792969 218.289062 83.382812 C 218.929688 82.613281 219.378906 81.941406 219.636719 81.074219 C 219.894531 80.242188 219.925781 79.34375 219.765625 78.511719 C 219.699219 78.09375 219.539062 77.679688 219.378906 77.261719 L 218.769531 75.980469 L 217.488281 73.417969 C 216.621094 71.71875 215.757812 70.019531 214.921875 68.257812 C 216.109375 69.765625 217.230469 71.335938 218.257812 72.96875 C 218.769531 73.769531 219.25 74.636719 219.699219 75.46875 C 219.925781 75.882812 220.148438 76.332031 220.375 76.78125 C 220.597656 77.261719 220.757812 77.742188 220.886719 78.253906 C 221.078125 79.28125 221.015625 80.371094 220.664062 81.363281 C 220.34375 82.355469 219.667969 83.253906 218.996094 83.894531 C 217.746094 85.238281 216.492188 86.523438 215.179688 87.738281 Z M 195.425781 132.949219 C 195.621094 133.460938 195.746094 133.972656 195.90625 134.484375 C 196.066406 135 196.230469 135.511719 196.355469 136.054688 C 196.644531 137.082031 196.902344 138.105469 197.160156 139.132812 C 197.605469 140.222656 198.503906 141.085938 199.59375 141.503906 C 200.8125 141.984375 202.03125 142.433594 203.25 142.945312 C 205.6875 143.9375 208.09375 145.027344 210.433594 146.214844 C 207.867188 145.570312 205.367188 144.769531 202.867188 143.90625 C 201.617188 143.457031 200.398438 143.007812 199.148438 142.527344 C 197.769531 142.015625 196.644531 140.863281 196.195312 139.484375 L 196.195312 139.421875 C 196.003906 138.363281 195.84375 137.273438 195.714844 136.214844 C 195.621094 135.671875 195.585938 135.160156 195.523438 134.613281 C 195.523438 134.003906 195.457031 133.460938 195.425781 132.949219 Z M 195.425781 132.949219 " fill-opacity="1" fill-rule="nonzero"/><g fill="#000000" fill-opacity="1"><g transform="translate(142.789522, 346.650006)"><g><path d="M 6.703125 -12 L 4.125 -6.71875 L 7.40625 0 L 6.8125 0 L 3.828125 -6.15625 L 0.8125 0 L 0.3125 0 L 3.5625 -6.703125 L 0.921875 -12 L 1.53125 -12 L 3.875 -7.25 L 6.1875 -12 Z M 6.703125 -12 "/></g></g></g><g fill="#000000" fill-opacity="1"><g transform="translate(155.491604, 346.650006)"><g><path d="M 7.046875 0.171875 L 6.859375 0.171875 C 5.765625 0.171875 4.742188 -0.113281 3.796875 -0.6875 C 2.847656 -1.257812 2.097656 -2.023438 1.546875 -2.984375 C 0.992188 -3.941406 0.71875 -4.957031 0.71875 -6.03125 C 0.71875 -7.726562 1.332031 -9.1875 2.5625 -10.40625 C 3.789062 -11.625 5.253906 -12.234375 6.953125 -12.234375 C 8.097656 -12.234375 9.179688 -11.9375 10.203125 -11.34375 L 10.203125 -10.75 C 9.203125 -11.4375 8.117188 -11.78125 6.953125 -11.78125 C 5.390625 -11.78125 4.046875 -11.21875 2.921875 -10.09375 C 1.804688 -8.96875 1.25 -7.617188 1.25 -6.046875 C 1.25 -4.472656 1.804688 -3.117188 2.921875 -1.984375 C 4.046875 -0.847656 5.390625 -0.28125 6.953125 -0.28125 C 8.117188 -0.28125 9.203125 -0.625 10.203125 -1.3125 L 10.203125 -0.71875 C 9.234375 -0.125 8.179688 0.171875 7.046875 0.171875 Z M 7.046875 0.171875 "/></g></g></g><g fill="#000000" fill-opacity="1"><g transform="translate(171.632853, 346.650006)"><g><path d="M 1.203125 -12 L 1.890625 -12 C 2.921875 -12 3.828125 -11.617188 4.609375 -10.859375 C 5.398438 -10.097656 5.796875 -9.203125 5.796875 -8.171875 C 5.796875 -7.140625 5.394531 -6.242188 4.59375 -5.484375 C 3.789062 -4.734375 2.929688 -4.359375 2.015625 -4.359375 L 1.90625 -4.359375 L 6.03125 0 L 5.34375 0 L 1.71875 -3.8125 L 1.71875 0 L 1.203125 0 Z M 1.71875 -4.8125 L 2 -4.8125 C 2.863281 -4.8125 3.625 -5.140625 4.28125 -5.796875 C 4.945312 -6.460938 5.28125 -7.25 5.28125 -8.15625 C 5.28125 -9.0625 4.9375 -9.847656 4.25 -10.515625 C 3.570312 -11.191406 2.796875 -11.53125 1.921875 -11.53125 L 1.71875 -11.53125 Z M 1.71875 -4.8125 "/></g></g></g><g fill="#000000" fill-opacity="1"><g transform="translate(183.11923, 346.650006)"><g><path d="M 6.828125 0.203125 C 5.179688 0.203125 3.75 -0.414062 2.53125 -1.65625 C 1.320312 -2.90625 0.71875 -4.363281 0.71875 -6.03125 C 0.71875 -7.707031 1.332031 -9.15625 2.5625 -10.375 C 3.789062 -11.59375 5.257812 -12.203125 6.96875 -12.203125 C 8.6875 -12.203125 10.15625 -11.59375 11.375 -10.375 C 12.59375 -9.164062 13.203125 -7.71875 13.203125 -6.03125 C 13.203125 -4.351562 12.597656 -2.894531 11.390625 -1.65625 C 10.179688 -0.414062 8.742188 0.203125 7.078125 0.203125 Z M 12.671875 -6 C 12.671875 -7.582031 12.113281 -8.9375 11 -10.0625 C 9.882812 -11.1875 8.539062 -11.75 6.96875 -11.75 C 5.394531 -11.75 4.046875 -11.1875 2.921875 -10.0625 C 1.804688 -8.9375 1.25 -7.582031 1.25 -6 C 1.25 -4.425781 1.804688 -3.070312 2.921875 -1.9375 C 4.046875 -0.8125 5.390625 -0.25 6.953125 -0.25 C 8.523438 -0.25 9.867188 -0.8125 10.984375 -1.9375 C 12.109375 -3.070312 12.671875 -4.425781 12.671875 -6 Z M 12.671875 -6 "/></g></g></g><g fill="#000000" fill-opacity="1"><g transform="translate(202.011823, 346.650006)"><g><path d="M 1.1875 -12 L 1.71875 -12 C 2.820312 -12 3.765625 -11.617188 4.546875 -10.859375 C 5.328125 -10.097656 5.71875 -9.195312 5.71875 -8.15625 C 5.71875 -7.125 5.3125 -6.234375 4.5 -5.484375 C 3.695312 -4.742188 2.8125 -4.375 1.84375 -4.375 L 1.71875 -4.375 L 1.71875 0 L 1.1875 0 Z M 1.71875 -4.8125 L 1.84375 -4.8125 C 2.738281 -4.8125 3.519531 -5.140625 4.1875 -5.796875 C 4.851562 -6.460938 5.1875 -7.25 5.1875 -8.15625 C 5.1875 -9.0625 4.847656 -9.847656 4.171875 -10.515625 C 3.492188 -11.191406 2.71875 -11.53125 1.84375 -11.53125 L 1.71875 -11.53125 Z M 1.71875 -4.8125 "/></g></g></g><g fill="#000000" fill-opacity="1"><g transform="translate(211.210583, 346.650006)"><g><path d="M 6.46875 -12.28125 L 12.46875 0 L 11.90625 0 L 9.625 -4.578125 L 3.21875 -4.578125 L 0.96875 0 L 0.484375 0 Z M 6.421875 -11.1875 L 3.421875 -5.046875 L 9.4375 -5.046875 Z M 6.421875 -11.1875 "/></g></g></g><g fill="#000000" fill-opacity="1"><g transform="translate(229.127406, 346.650006)"><g><path d="M 1.28125 -12 L 1.8125 -12 L 1.8125 0 L 1.28125 0 Z M 1.28125 -12 "/></g></g></g></svg>